<mxfile host="app.diagrams.net" modified="2022-08-02T03:32:58.870Z" agent="5.0 (Macintosh; Intel Mac OS X 10_15_7) AppleWebKit/537.36 (KHTML, like Gecko) Chrome/103.0.0.0 Safari/537.36" etag="3Jud0ZeTeQM_cS9gwnLW" version="20.1.4" type="github">
  <diagram id="t1ml5zMw1nqCPfYBfL3Y" name="第 1 页">
    <mxGraphModel dx="946" dy="526" grid="1" gridSize="10" guides="1" tooltips="1" connect="1" arrows="1" fold="1" page="1" pageScale="1" pageWidth="827" pageHeight="1169" math="0" shadow="0">
      <root>
        <mxCell id="0" />
        <mxCell id="1" parent="0" />
        <mxCell id="3-5XFRoFqFSEZDjot2AR-10" style="edgeStyle=orthogonalEdgeStyle;rounded=0;orthogonalLoop=1;jettySize=auto;html=1;entryX=0.5;entryY=0;entryDx=0;entryDy=0;fontSize=12;exitX=1;exitY=0.5;exitDx=0;exitDy=0;" edge="1" parent="1" source="3-5XFRoFqFSEZDjot2AR-2" target="3-5XFRoFqFSEZDjot2AR-4">
          <mxGeometry relative="1" as="geometry">
            <Array as="points">
              <mxPoint x="530" y="320" />
              <mxPoint x="530" y="420" />
            </Array>
          </mxGeometry>
        </mxCell>
        <mxCell id="3-5XFRoFqFSEZDjot2AR-2" value="&lt;font style=&quot;&quot;&gt;DDMQ 订单流&lt;br&gt;&lt;span style=&quot;color: rgb(50, 54, 64); font-family: PingFangSC; text-align: start; background-color: rgb(255, 255, 255);&quot;&gt;&lt;font style=&quot;font-size: 10px;&quot;&gt;map_traffic_kflower_with_honghu_dos_order_merged&lt;/font&gt;&lt;/span&gt;&lt;/font&gt;" style="shape=parallelogram;perimeter=parallelogramPerimeter;whiteSpace=wrap;html=1;fixedSize=1;" vertex="1" parent="1">
          <mxGeometry x="180" y="300" width="330" height="40" as="geometry" />
        </mxCell>
        <mxCell id="3-5XFRoFqFSEZDjot2AR-11" style="edgeStyle=orthogonalEdgeStyle;rounded=0;orthogonalLoop=1;jettySize=auto;html=1;entryX=0.5;entryY=0;entryDx=0;entryDy=0;fontSize=12;exitX=1;exitY=0.5;exitDx=0;exitDy=0;" edge="1" parent="1" source="3-5XFRoFqFSEZDjot2AR-3" target="3-5XFRoFqFSEZDjot2AR-4">
          <mxGeometry relative="1" as="geometry">
            <Array as="points">
              <mxPoint x="530" y="380" />
              <mxPoint x="530" y="420" />
            </Array>
          </mxGeometry>
        </mxCell>
        <mxCell id="3-5XFRoFqFSEZDjot2AR-3" value="&lt;font style=&quot;&quot;&gt;Kakfa ORA流&lt;br&gt;&lt;span style=&quot;color: rgba(0, 0, 0, 0.85); font-family: PingFangSC-Regular; text-align: start; background-color: rgb(255, 255, 255);&quot;&gt;&lt;font style=&quot;font-size: 12px;&quot;&gt;road_abnormal_uv_stream&lt;/font&gt;&lt;/span&gt;&lt;br&gt;&lt;/font&gt;" style="shape=parallelogram;perimeter=parallelogramPerimeter;whiteSpace=wrap;html=1;fixedSize=1;" vertex="1" parent="1">
          <mxGeometry x="180" y="360" width="330" height="40" as="geometry" />
        </mxCell>
        <mxCell id="3-5XFRoFqFSEZDjot2AR-15" style="edgeStyle=orthogonalEdgeStyle;rounded=0;orthogonalLoop=1;jettySize=auto;html=1;exitX=0.5;exitY=1;exitDx=0;exitDy=0;entryX=0;entryY=0.5;entryDx=0;entryDy=0;fontFamily=Helvetica;fontSize=12;" edge="1" parent="1" source="3-5XFRoFqFSEZDjot2AR-4" target="3-5XFRoFqFSEZDjot2AR-8">
          <mxGeometry relative="1" as="geometry">
            <Array as="points">
              <mxPoint x="530" y="500" />
            </Array>
          </mxGeometry>
        </mxCell>
        <mxCell id="3-5XFRoFqFSEZDjot2AR-16" style="edgeStyle=orthogonalEdgeStyle;rounded=0;orthogonalLoop=1;jettySize=auto;html=1;entryX=0;entryY=0.5;entryDx=0;entryDy=0;fontFamily=Helvetica;fontSize=12;" edge="1" parent="1" source="3-5XFRoFqFSEZDjot2AR-4" target="3-5XFRoFqFSEZDjot2AR-12">
          <mxGeometry relative="1" as="geometry">
            <Array as="points">
              <mxPoint x="530" y="560" />
            </Array>
          </mxGeometry>
        </mxCell>
        <mxCell id="3-5XFRoFqFSEZDjot2AR-17" style="edgeStyle=orthogonalEdgeStyle;rounded=0;orthogonalLoop=1;jettySize=auto;html=1;entryX=0;entryY=0.5;entryDx=0;entryDy=0;fontFamily=Helvetica;fontSize=12;" edge="1" parent="1" source="3-5XFRoFqFSEZDjot2AR-4" target="3-5XFRoFqFSEZDjot2AR-13">
          <mxGeometry relative="1" as="geometry">
            <Array as="points">
              <mxPoint x="530" y="620" />
            </Array>
          </mxGeometry>
        </mxCell>
        <mxCell id="3-5XFRoFqFSEZDjot2AR-18" style="edgeStyle=orthogonalEdgeStyle;rounded=0;orthogonalLoop=1;jettySize=auto;html=1;entryX=0;entryY=0.5;entryDx=0;entryDy=0;fontFamily=Helvetica;fontSize=12;" edge="1" parent="1" source="3-5XFRoFqFSEZDjot2AR-4" target="3-5XFRoFqFSEZDjot2AR-14">
          <mxGeometry relative="1" as="geometry">
            <Array as="points">
              <mxPoint x="530" y="680" />
            </Array>
          </mxGeometry>
        </mxCell>
        <mxCell id="3-5XFRoFqFSEZDjot2AR-4" value="Flink 异常绕路判别&lt;br&gt;com.didichuxing.traffic.streaming.app.traj.AbnormalDetour" style="rounded=0;whiteSpace=wrap;html=1;fontSize=12;" vertex="1" parent="1">
          <mxGeometry x="370" y="420" width="320" height="40" as="geometry" />
        </mxCell>
        <mxCell id="3-5XFRoFqFSEZDjot2AR-8" value="&lt;font style=&quot;&quot;&gt;Kafka 新格式绕路结果，用于case分析&lt;br&gt;&lt;span style=&quot;color: rgb(50, 54, 64); font-size: 10px; text-align: start;&quot;&gt;map_abnormal_detour_stream_new&lt;/span&gt;&lt;br&gt;&lt;/font&gt;" style="shape=parallelogram;perimeter=parallelogramPerimeter;whiteSpace=wrap;html=1;fixedSize=1;" vertex="1" parent="1">
          <mxGeometry x="550" y="480" width="330" height="40" as="geometry" />
        </mxCell>
        <mxCell id="3-5XFRoFqFSEZDjot2AR-12" value="&lt;font style=&quot;&quot;&gt;DDMQ 旧格式绕路结果（非聚合）&lt;br&gt;map_abnormal_detour_stream_kflower&lt;br&gt;&lt;/font&gt;" style="shape=parallelogram;perimeter=parallelogramPerimeter;whiteSpace=wrap;html=1;fixedSize=1;" vertex="1" parent="1">
          <mxGeometry x="550" y="540" width="330" height="40" as="geometry" />
        </mxCell>
        <mxCell id="3-5XFRoFqFSEZDjot2AR-13" value="&lt;font style=&quot;&quot;&gt;Kafka 同步旧格式绕路结果（非聚合）&lt;br&gt;map_abnormal_detour_stream_to_sync&lt;br&gt;&lt;/font&gt;" style="shape=parallelogram;perimeter=parallelogramPerimeter;whiteSpace=wrap;html=1;fixedSize=1;" vertex="1" parent="1">
          <mxGeometry x="550" y="600" width="330" height="40" as="geometry" />
        </mxCell>
        <mxCell id="3-5XFRoFqFSEZDjot2AR-14" value="&lt;font style=&quot;&quot;&gt;Kafka 带特征的绕路结果&lt;br&gt;map_abnormal_detour_stream_with_feature_to_sync&lt;br&gt;&lt;/font&gt;" style="shape=parallelogram;perimeter=parallelogramPerimeter;whiteSpace=wrap;html=1;fixedSize=1;" vertex="1" parent="1">
          <mxGeometry x="550" y="660" width="330" height="40" as="geometry" />
        </mxCell>
        <mxCell id="3-5XFRoFqFSEZDjot2AR-20" style="edgeStyle=orthogonalEdgeStyle;rounded=0;orthogonalLoop=1;jettySize=auto;html=1;entryX=0.5;entryY=0;entryDx=0;entryDy=0;fontFamily=Helvetica;fontSize=12;" edge="1" parent="1" source="3-5XFRoFqFSEZDjot2AR-19" target="3-5XFRoFqFSEZDjot2AR-2">
          <mxGeometry relative="1" as="geometry" />
        </mxCell>
        <mxCell id="3-5XFRoFqFSEZDjot2AR-19" value="Flink 异常绕路判别&lt;br&gt;com.didichuxing.traffic.streaming.app.traj.AbnormalDetour" style="rounded=0;whiteSpace=wrap;html=1;fontSize=12;" vertex="1" parent="1">
          <mxGeometry x="185" y="240" width="320" height="40" as="geometry" />
        </mxCell>
        <mxCell id="3-5XFRoFqFSEZDjot2AR-23" style="edgeStyle=orthogonalEdgeStyle;rounded=0;orthogonalLoop=1;jettySize=auto;html=1;exitX=1;exitY=0.5;exitDx=0;exitDy=0;entryX=0.5;entryY=0;entryDx=0;entryDy=0;fontFamily=Helvetica;fontSize=12;" edge="1" parent="1" source="3-5XFRoFqFSEZDjot2AR-21" target="3-5XFRoFqFSEZDjot2AR-19">
          <mxGeometry relative="1" as="geometry">
            <Array as="points">
              <mxPoint x="345" y="140" />
            </Array>
          </mxGeometry>
        </mxCell>
        <mxCell id="3-5XFRoFqFSEZDjot2AR-21" value="&lt;font style=&quot;&quot;&gt;DDMQ Kflower 订单流&lt;br&gt;kflower-binlog-kflower_gs_dos_order-dos_order&lt;br&gt;&lt;/font&gt;" style="shape=parallelogram;perimeter=parallelogramPerimeter;whiteSpace=wrap;html=1;fixedSize=1;" vertex="1" parent="1">
          <mxGeometry x="30" y="120" width="300" height="40" as="geometry" />
        </mxCell>
        <mxCell id="3-5XFRoFqFSEZDjot2AR-24" style="edgeStyle=orthogonalEdgeStyle;rounded=0;orthogonalLoop=1;jettySize=auto;html=1;exitX=1;exitY=0.5;exitDx=0;exitDy=0;fontFamily=Helvetica;fontSize=12;entryX=0.5;entryY=0;entryDx=0;entryDy=0;" edge="1" parent="1" source="3-5XFRoFqFSEZDjot2AR-22" target="3-5XFRoFqFSEZDjot2AR-19">
          <mxGeometry relative="1" as="geometry">
            <mxPoint x="350" y="240" as="targetPoint" />
            <Array as="points">
              <mxPoint x="345" y="200" />
            </Array>
          </mxGeometry>
        </mxCell>
        <mxCell id="3-5XFRoFqFSEZDjot2AR-22" value="&lt;div style=&quot;text-align: center;&quot;&gt;&lt;span style=&quot;text-align: start; background-color: rgb(248, 249, 250);&quot;&gt;DDMQ Honghu 订单流&lt;/span&gt;&lt;/div&gt;&lt;div style=&quot;text-align: start;&quot;&gt;&lt;span style=&quot;background-color: initial;&quot;&gt;honghu-binlog-honghu_gs_dos_order-dos_order&lt;/span&gt;&lt;/div&gt;" style="shape=parallelogram;perimeter=parallelogramPerimeter;whiteSpace=wrap;html=1;fixedSize=1;" vertex="1" parent="1">
          <mxGeometry x="30" y="180" width="300" height="40" as="geometry" />
        </mxCell>
      </root>
    </mxGraphModel>
  </diagram>
</mxfile>
